Heat ENHANCED VERSION 1995 BluRay 1080p DTS x264 dxva-EuReKA.mkv

Video
ID : 1
Format : AVC
Release Group: EuReKA
Container: MKV
Format: x264
Resolution: 1080p
Source Media: Blu-Ray
Audio Format: DTS
Audio Channels: 5.1
Audio Bitrate: 1536
Subtitles English, Dutch
 
http://akas.imdb.com/title/tt0113277

Genres:Crime, Drama, Thriller

Rated R for violence and language

Release Date:15 December 1995 (USA)



Cast
Actor Role 
Al Pacino Lt. Vincent Hanna 
Robert De Niro Neil McCauley 
Val Kilmer Chris Shiherlis 
Jon Voight Nate 
Tom Sizemore Michael Cheritto 
Diane Venora Justine Hanna 
Amy Brenneman Eady 
Ashley Judd Charlene Shiherlis 
Mykelti Williamson Sergeant Drucker 
Wes Studi Detective Casals 
Ted Levine Bosko 
Dennis Haysbert Donald Breedan 
William Fichtner Roger Van Zant 
Natalie Portman Lauren Gustafson 
Tom Noonan Kelso 


Storyline
Hunters and their prey--Neil and his professional criminal crew hunt to score big money targets (banks, vaults, armored cars) and are, in turn, hunted by Lt. Vincent Hanna and his team of cops in the Robbery/Homicide police division. A botched job puts Hanna onto their trail while they regroup and try to put together one last big 'retirement' score. Neil and Vincent are similar in many ways, including their troubled personal lives. At a crucial moment in his life, Neil disobeys the dictum taught to him long ago by his criminal mentor--'Never have anything in your life that you can't walk out on in thirty seconds flat, if you spot the heat coming around the corner'--as he falls in love. Thus the stage is set for the suspenseful ending.... Written by Tad Dibbern <DIBBERN_D@a1.mscf.upenn.edu>   


[img]http://torrent-stats.info/f2f2/12357430e.png[/img]

General
Complete Name : G:\Te_uploaden_encoderingen\Heat.ENHANCED.VERSION.1995.BluRay.1080p.DTS.x264.dxva-EuReKA\Heat.ENHANCED.VERSION.1995.BluRay.1080p.DTS.x264.dxva-EuReKA.mkv
Format : Matroska
File Size : 15.1 GiB
Duration : 2h 50mn
Overall bit rate : 12.7 Mbps
Encoded date : UTC 2009-11-06 18:42:21
Writing application : mkvmerge v2.9.7 ('Tenderness') built on Jul 1 2009 18:43:35
Writing library : libebml v0.7.7 + libmatroska v0.8.1



Format/Info : Advanced Video Codec
Format profile : High@L4.1
Format settings, CABAC : Yes
Format settings, ReFrames : 5 frames
Muxing mode : Container profile=Unknown@4.1
Codec ID : V_MPEG4/ISO/AVC
Duration : 2h 50mn
Bit rate : 10.9 Mbps
Nominal Bit rate : 11.2 Mbps
Width: 1 920 pixels
Height: 800 pixels
Display aspect ratio : 2.400
Frame Rate: 23.976 fps
Resolution : 24 bits
Colorimetry : 4:2:0
Scan type : Progressive
Bits/(Pixel*Frame) : 0.296
Stream size : 13.0 GiB (86%)
Title : x264 - 2 passes @ 50% of the original video
Writing library : x264 core 68 r1183M f21daff
Encoding settings : cabac=1 / ref=5 / deblock=1:-3:-3 / analyse=0x3:0x113 / me=umh / subme=9 / psy_rd=1.0:0.0 / mixed_ref=1 / me_range=32 / chroma_me=1 / trellis=2 / 8x8dct=1 / cqm=0 / deadzone=21,11 / chroma_qp_offset=-2 / threads=12 / nr=0 / decimate=1 / mbaff=0 / bframes=3 / b_pyramid=1 / b_adapt=2 / b_bias=0 / direct=2 / wpredb=1 / keyint=250 / keyint_min=25 / scenecut=40 / rc=2pass / bitrate=11167 / ratetol=1.0 / qcomp=0.60 / qpmin=10 / qpmax=51 / qpstep=4 / cplxblur=20.0 / qblur=0.5 / vbv_maxrate=38000 / vbv_bufsize=30000 / ip_ratio=1.40 / pb_ratio=1.30 / aq=1:0.80
Language : English

Audio
ID : 2
Format : DTS
Format/Info : Digital Theater Systems
Codec ID : A_DTS
Duration : 2h 50mn
Bit rate mode : Constant
Bit rate : 1 510 Kbps
Channel(s) : 6 channels
Channel positions : Front: L C R, Surround: L R, LFE
Sampling rate : 48.0 KHz
Resolution : 24 bits
Stream size : 1.80 GiB (12%)
Title : DTS - 1536 kbit/sec
Language : English

Text #1
ID : 3
Format : UTF-8
Codec ID : S_TEXT/UTF8
Codec ID/Info : UTF-8 Plain Text
Language : English

Text #2
ID : 4
Format : UTF-8
Codec ID : S_TEXT/UTF8
Codec ID/Info : UTF-8 Plain Text
Language : Dutch

 
http://www.imagebam.com/image/1e2de3120779026 
http://www.imagebam.com/image/2d7df5120779039 
http://www.imagebam.com/image/2c2c77120779047 
http://www.imagebam.com/image/655b5e120779119 
http://www.imagebam.com/image/410c19120779169 
http://www.imagebam.com/image/2d7392120779174